STARTFONT 2.1
FONT -FontForge-FS Sevegment-Book-R-Normal--30-290-75-75-P-190-ISO10646-1
SIZE 29 75 75
FONTBOUNDINGBOX 23 30 0 0
COMMENT "Generated by fontforge, http://fontforge.sourceforge.net"
COMMENT "Copyright moontr3 2023"
STARTPROPERTIES 40
FOUNDRY "FontForge"
FAMILY_NAME "FS Sevegment"
WEIGHT_NAME "Book"
SLANT "R"
SETWIDTH_NAME "Normal"
ADD_STYLE_NAME ""
PIXEL_SIZE 30
POINT_SIZE 290
RESOLUTION_X 75
RESOLUTION_Y 75
SPACING "P"
AVERAGE_WIDTH 190
CHARSET_REGISTRY "ISO10646"
CHARSET_ENCODING "1"
FONTNAME_REGISTRY ""
CHARSET_COLLECTIONS "ISO10646-1"
FONT_NAME "FSSevegment"
FACE_NAME "FS Sevegment Regular"
COPYRIGHT "Copyright moontr3 2023"
FONT_VERSION "1.0"
FONT_ASCENT 30
FONT_DESCENT 0
UNDERLINE_POSITION 2
UNDERLINE_THICKNESS 2
X_HEIGHT 27
CAP_HEIGHT 27
RAW_ASCENT 1000
RAW_DESCENT 0
NORM_SPACE 19
RELATIVE_WEIGHT 40
RELATIVE_SETWIDTH 50
SUPERSCRIPT_X 0
SUPERSCRIPT_Y 15
SUPERSCRIPT_SIZE 15
SUBSCRIPT_X 0
SUBSCRIPT_Y 0
SUBSCRIPT_SIZE 15
FIGURE_WIDTH 19
AVG_LOWERCASE_WIDTH 190
AVG_UPPERCASE_WIDTH 190
ENDPROPERTIES
CHARS 83
STARTCHAR space
ENCODING 32
SWIDTH 646 0
DWIDTH 19 0
BBX 1 1 0 0
BITMAP
00
ENDCHAR
STARTCHAR exclam
ENCODING 33
SWIDTH 646 0
DWIDTH 19 0
BBX 14 28 0 0
BITMAP
C000
E000
F000
F000
F000
F000
F000
F000
F000
F000
E000
4000
0000
0000
0000
0000
0000
0000
0000
0000
0000
0000
0000
0000
0FE0
1FF0
3FF8
3FFC
ENDCHAR
STARTCHAR quotedbl
ENCODING 34
SWIDTH 646 0
DWIDTH 19 0
BBX 16 12 0 16
BITMAP
C003
E007
F00F
F00F
F00F
F00F
F00F
F00F
F00F
F00F
E00F
4006
ENDCHAR
STARTCHAR quotesingle
ENCODING 39
SWIDTH 646 0
DWIDTH 19 0
BBX 4 12 0 16
BITMAP
C0
E0
F0
F0
F0
F0
F0
F0
F0
F0
E0
40
ENDCHAR
STARTCHAR parenleft
ENCODING 40
SWIDTH 646 0
DWIDTH 19 0
BBX 14 30 0 0
BITMAP
3FFC
3FFC
DFF8
EFF0
F000
F000
F000
F000
F000
F000
F000
F000
E000
4000
0000
0000
4000
E000
F000
F000
F000
F000
F000
F000
F000
F000
EFE0
DFF0
3FF8
3FFC
ENDCHAR
STARTCHAR parenright
ENCODING 41
SWIDTH 646 0
DWIDTH 19 0
BBX 14 30 2 0
BITMAP
FFF0
FFF0
7FEC
3FDC
003C
003C
003C
003C
003C
003C
003C
003C
003C
0018
0000
0000
0018
003C
003C
003C
003C
003C
003C
003C
003C
003C
3F9C
7FCC
FFE0
FFF0
ENDCHAR
STARTCHAR comma
ENCODING 44
SWIDTH 646 0
DWIDTH 19 0
BBX 4 12 0 2
BITMAP
40
E0
F0
F0
F0
F0
F0
F0
F0
F0
E0
C0
ENDCHAR
STARTCHAR hyphen
ENCODING 45
SWIDTH 646 0
DWIDTH 19 0
BBX 10 4 3 13
BITMAP
7F80
FFC0
FFC0
7F80
ENDCHAR
STARTCHAR period
ENCODING 46
SWIDTH 133 0
DWIDTH 4 0
BBX 2 2 0 0
BITMAP
C0
C0
ENDCHAR
STARTCHAR zero
ENCODING 48
SWIDTH 646 0
DWIDTH 19 0
BBX 16 30 0 0
BITMAP
3FFC
3FFC
DFFB
EFF7
F00F
F00F
F00F
F00F
F00F
F00F
F00F
F00F
E00F
4006
0000
0000
4006
E00F
F00F
F00F
F00F
F00F
F00F
F00F
F00F
F00F
EFE7
DFF3
3FF8
3FFC
ENDCHAR
STARTCHAR one
ENCODING 49
SWIDTH 646 0
DWIDTH 19 0
BBX 4 26 12 2
BITMAP
30
70
F0
F0
F0
F0
F0
F0
F0
F0
F0
60
00
00
60
F0
F0
F0
F0
F0
F0
F0
F0
F0
70
30
ENDCHAR
STARTCHAR two
ENCODING 50
SWIDTH 646 0
DWIDTH 19 0
BBX 16 30 0 0
BITMAP
3FFC
3FFC
1FFB
0FF7
000F
000F
000F
000F
000F
000F
000F
000F
000F
0FF6
1FF8
1FF8
4FF0
E000
F000
F000
F000
F000
F000
F000
F000
F000
EFE0
DFF0
3FF8
3FFC
ENDCHAR
STARTCHAR three
ENCODING 51
SWIDTH 646 0
DWIDTH 19 0
BBX 14 30 2 0
BITMAP
FFF0
FFF0
7FEC
3FDC
003C
003C
003C
003C
003C
003C
003C
003C
003C
3FD8
7FE0
7FE0
3FD8
003C
003C
003C
003C
003C
003C
003C
003C
003C
3F9C
7FCC
FFE0
FFF0
ENDCHAR
STARTCHAR four
ENCODING 52
SWIDTH 646 0
DWIDTH 19 0
BBX 16 26 0 2
BITMAP
C003
E007
F00F
F00F
F00F
F00F
F00F
F00F
F00F
F00F
E00F
4FF6
1FF8
1FF8
0FF6
000F
000F
000F
000F
000F
000F
000F
000F
000F
0007
0003
ENDCHAR
STARTCHAR five
ENCODING 53
SWIDTH 646 0
DWIDTH 19 0
BBX 16 30 0 0
BITMAP
3FFC
3FFC
DFF8
EFF0
F000
F000
F000
F000
F000
F000
F000
F000
E000
4FF0
1FF8
1FF8
0FF6
000F
000F
000F
000F
000F
000F
000F
000F
000F
0FE7
1FF3
3FF8
3FFC
ENDCHAR
STARTCHAR six
ENCODING 54
SWIDTH 646 0
DWIDTH 19 0
BBX 16 30 0 0
BITMAP
3FFC
3FFC
DFF8
EFF0
F000
F000
F000
F000
F000
F000
F000
F000
E000
4FF0
1FF8
1FF8
4FF6
E00F
F00F
F00F
F00F
F00F
F00F
F00F
F00F
F00F
EFE7
DFF3
3FF8
3FFC
ENDCHAR
STARTCHAR seven
ENCODING 55
SWIDTH 646 0
DWIDTH 19 0
BBX 16 28 0 2
BITMAP
3FFC
3FFC
DFFB
EFF7
F00F
F00F
F00F
F00F
F00F
F00F
F00F
F00F
E00F
4006
0000
0000
0006
000F
000F
000F
000F
000F
000F
000F
000F
000F
0007
0003
ENDCHAR
STARTCHAR eight
ENCODING 56
SWIDTH 646 0
DWIDTH 19 0
BBX 16 30 0 0
BITMAP
3FFC
3FFC
DFFB
EFF7
F00F
F00F
F00F
F00F
F00F
F00F
F00F
F00F
E00F
4FF6
1FF8
1FF8
4FF6
E00F
F00F
F00F
F00F
F00F
F00F
F00F
F00F
F00F
EFE7
DFF3
3FF8
3FFC
ENDCHAR
STARTCHAR nine
ENCODING 57
SWIDTH 646 0
DWIDTH 19 0
BBX 16 30 0 0
BITMAP
3FFC
3FFC
DFFB
EFF7
F00F
F00F
F00F
F00F
F00F
F00F
F00F
F00F
E00F
4FF6
1FF8
1FF8
0FF6
000F
000F
000F
000F
000F
000F
000F
000F
000F
0FE7
1FF3
3FF8
3FFC
ENDCHAR
STARTCHAR equal
ENCODING 61
SWIDTH 646 0
DWIDTH 19 0
BBX 12 17 2 0
BITMAP
3FC0
7FE0
7FE0
3FC0
0000
0000
0000
0000
0000
0000
0000
0000
0000
3F80
7FC0
FFE0
FFF0
ENDCHAR
STARTCHAR question
ENCODING 63
SWIDTH 646 0
DWIDTH 19 0
BBX 14 30 2 0
BITMAP
FFF0
FFF0
7FEC
3FDC
003C
003C
003C
003C
003C
003C
003C
003C
003C
3FD8
7FE0
7FE0
3FC0
0000
0000
0000
0000
0000
0000
0000
0000
0000
3F80
7FC0
FFE0
FFF0
ENDCHAR
STARTCHAR at
ENCODING 64
SWIDTH 646 0
DWIDTH 19 0
BBX 16 30 0 0
BITMAP
3FFC
3FFC
DFFB
EFF7
F00F
F00F
F00F
F00F
F00F
F00F
F00F
F00F
E00F
4FF6
1FF8
1FF8
4FF0
E000
F000
F000
F000
F000
F000
F000
F000
F000
EFE0
DFF0
3FF8
3FFC
ENDCHAR
STARTCHAR A
ENCODING 65
SWIDTH 646 0
DWIDTH 19 0
BBX 16 28 0 2
BITMAP
3FFC
3FFC
DFFB
EFF7
F00F
F00F
F00F
F00F
F00F
F00F
F00F
F00F
E00F
4FF6
1FF8
1FF8
4FF6
E00F
F00F
F00F
F00F
F00F
F00F
F00F
F00F
F00F
E007
C003
ENDCHAR
STARTCHAR B
ENCODING 66
SWIDTH 646 0
DWIDTH 19 0
BBX 16 28 0 0
BITMAP
C000
E000
F000
F000
F000
F000
F000
F000
F000
F000
E000
4FF0
1FF8
1FF8
4FF6
E00F
F00F
F00F
F00F
F00F
F00F
F00F
F00F
F00F
EFE7
DFF3
3FF8
3FFC
ENDCHAR
STARTCHAR C
ENCODING 67
SWIDTH 646 0
DWIDTH 19 0
BBX 14 30 0 0
BITMAP
3FFC
3FFC
DFF8
EFF0
F000
F000
F000
F000
F000
F000
F000
F000
E000
4000
0000
0000
4000
E000
F000
F000
F000
F000
F000
F000
F000
F000
EFE0
DFF0
3FF8
3FFC
ENDCHAR
STARTCHAR D
ENCODING 68
SWIDTH 646 0
DWIDTH 19 0
BBX 16 28 0 0
BITMAP
0003
0007
000F
000F
000F
000F
000F
000F
000F
000F
000F
0FF6
1FF8
1FF8
4FF6
E00F
F00F
F00F
F00F
F00F
F00F
F00F
F00F
F00F
EFE7
DFF3
3FF8
3FFC
ENDCHAR
STARTCHAR E
ENCODING 69
SWIDTH 646 0
DWIDTH 19 0
BBX 14 30 0 0
BITMAP
3FFC
3FFC
DFF8
EFF0
F000
F000
F000
F000
F000
F000
F000
F000
E000
4FF0
1FF8
1FF8
4FF0
E000
F000
F000
F000
F000
F000
F000
F000
F000
EFE0
DFF0
3FF8
3FFC
ENDCHAR
STARTCHAR F
ENCODING 70
SWIDTH 646 0
DWIDTH 19 0
BBX 14 28 0 2
BITMAP
3FFC
3FFC
DFF8
EFF0
F000
F000
F000
F000
F000
F000
F000
F000
E000
4FF0
1FF8
1FF8
4FF0
E000
F000
F000
F000
F000
F000
F000
F000
F000
E000
C000
ENDCHAR
STARTCHAR G
ENCODING 71
SWIDTH 646 0
DWIDTH 19 0
BBX 16 30 0 0
BITMAP
3FFC
3FFC
DFF8
EFF0
F000
F000
F000
F000
F000
F000
F000
F000
E000
4000
0000
0000
4006
E00F
F00F
F00F
F00F
F00F
F00F
F00F
F00F
F00F
EFE7
DFF3
3FF8
3FFC
ENDCHAR
STARTCHAR H
ENCODING 72
SWIDTH 646 0
DWIDTH 19 0
BBX 16 26 0 2
BITMAP
C003
E007
F00F
F00F
F00F
F00F
F00F
F00F
F00F
F00F
E00F
4FF6
1FF8
1FF8
4FF6
E00F
F00F
F00F
F00F
F00F
F00F
F00F
F00F
F00F
E007
C003
ENDCHAR
STARTCHAR I
ENCODING 73
SWIDTH 646 0
DWIDTH 19 0
BBX 4 26 12 2
BITMAP
30
70
F0
F0
F0
F0
F0
F0
F0
F0
F0
60
00
00
60
F0
F0
F0
F0
F0
F0
F0
F0
F0
70
30
ENDCHAR
STARTCHAR J
ENCODING 74
SWIDTH 646 0
DWIDTH 19 0
BBX 16 28 0 0
BITMAP
0003
0007
000F
000F
000F
000F
000F
000F
000F
000F
000F
0006
0000
0000
4006
E00F
F00F
F00F
F00F
F00F
F00F
F00F
F00F
F00F
EFE7
DFF3
3FF8
3FFC
ENDCHAR
STARTCHAR K
ENCODING 75
SWIDTH 646 0
DWIDTH 19 0
BBX 16 28 0 2
BITMAP
3FFC
3FFC
DFF8
EFF0
F000
F000
F000
F000
F000
F000
F000
F000
E000
4FF0
1FF8
1FF8
4FF6
E00F
F00F
F00F
F00F
F00F
F00F
F00F
F00F
F00F
E007
C003
ENDCHAR
STARTCHAR L
ENCODING 76
SWIDTH 646 0
DWIDTH 19 0
BBX 14 28 0 0
BITMAP
C000
E000
F000
F000
F000
F000
F000
F000
F000
F000
E000
4000
0000
0000
4000
E000
F000
F000
F000
F000
F000
F000
F000
F000
EFE0
DFF0
3FF8
3FFC
ENDCHAR
STARTCHAR M
ENCODING 77
SWIDTH 646 0
DWIDTH 19 0
BBX 16 28 0 2
BITMAP
3FFC
3FFC
1FF8
0FF0
0000
0000
0000
0000
0000
0000
0000
0000
0000
0FF0
1FF8
1FF8
4FF6
E00F
F00F
F00F
F00F
F00F
F00F
F00F
F00F
F00F
E007
C003
ENDCHAR
STARTCHAR N
ENCODING 78
SWIDTH 646 0
DWIDTH 19 0
BBX 16 28 0 2
BITMAP
3FFC
3FFC
DFFB
EFF7
F00F
F00F
F00F
F00F
F00F
F00F
F00F
F00F
E00F
4006
0000
0000
4006
E00F
F00F
F00F
F00F
F00F
F00F
F00F
F00F
F00F
E007
C003
ENDCHAR
STARTCHAR O
ENCODING 79
SWIDTH 646 0
DWIDTH 19 0
BBX 16 30 0 0
BITMAP
3FFC
3FFC
DFFB
EFF7
F00F
F00F
F00F
F00F
F00F
F00F
F00F
F00F
E00F
4006
0000
0000
4006
E00F
F00F
F00F
F00F
F00F
F00F
F00F
F00F
F00F
EFE7
DFF3
3FF8
3FFC
ENDCHAR
STARTCHAR P
ENCODING 80
SWIDTH 646 0
DWIDTH 19 0
BBX 16 28 0 2
BITMAP
3FFC
3FFC
DFFB
EFF7
F00F
F00F
F00F
F00F
F00F
F00F
F00F
F00F
E00F
4FF6
1FF8
1FF8
4FF0
E000
F000
F000
F000
F000
F000
F000
F000
F000
E000
C000
ENDCHAR
STARTCHAR Q
ENCODING 81
SWIDTH 646 0
DWIDTH 19 0
BBX 16 28 0 2
BITMAP
3FFC
3FFC
DFFB
EFF7
F00F
F00F
F00F
F00F
F00F
F00F
F00F
F00F
E00F
4FF6
1FF8
1FF8
0FF6
000F
000F
000F
000F
000F
000F
000F
000F
000F
0007
0003
ENDCHAR
STARTCHAR R
ENCODING 82
SWIDTH 646 0
DWIDTH 19 0
BBX 14 28 0 2
BITMAP
3FFC
3FFC
DFF8
EFF0
F000
F000
F000
F000
F000
F000
F000
F000
E000
4000
0000
0000
4000
E000
F000
F000
F000
F000
F000
F000
F000
F000
E000
C000
ENDCHAR
STARTCHAR S
ENCODING 83
SWIDTH 646 0
DWIDTH 19 0
BBX 16 30 0 0
BITMAP
3FFC
3FFC
DFF8
EFF0
F000
F000
F000
F000
F000
F000
F000
F000
E000
4FF0
1FF8
1FF8
0FF6
000F
000F
000F
000F
000F
000F
000F
000F
000F
0FE7
1FF3
3FF8
3FFC
ENDCHAR
STARTCHAR T
ENCODING 84
SWIDTH 646 0
DWIDTH 19 0
BBX 14 28 0 0
BITMAP
C000
E000
F000
F000
F000
F000
F000
F000
F000
F000
E000
4FF0
1FF8
1FF8
4FF0
E000
F000
F000
F000
F000
F000
F000
F000
F000
EFE0
DFF0
3FF8
3FFC
ENDCHAR
STARTCHAR U
ENCODING 85
SWIDTH 646 0
DWIDTH 19 0
BBX 16 28 0 0
BITMAP
C003
E007
F00F
F00F
F00F
F00F
F00F
F00F
F00F
F00F
E00F
4006
0000
0000
4006
E00F
F00F
F00F
F00F
F00F
F00F
F00F
F00F
F00F
EFE7
DFF3
3FF8
3FFC
ENDCHAR
STARTCHAR V
ENCODING 86
SWIDTH 646 0
DWIDTH 19 0
BBX 16 26 0 2
BITMAP
C003
E007
F00F
F00F
F00F
F00F
F00F
F00F
F00F
F00F
E00F
4FF6
1FF8
1FF8
4FF0
E000
F000
F000
F000
F000
F000
F000
F000
F000
E000
C000
ENDCHAR
STARTCHAR W
ENCODING 87
SWIDTH 646 0
DWIDTH 19 0
BBX 16 28 0 0
BITMAP
C003
E007
F00F
F00F
F00F
F00F
F00F
F00F
F00F
F00F
E00F
4FF6
1FF8
1FF8
0FF0
0000
0000
0000
0000
0000
0000
0000
0000
0000
0FE0
1FF0
3FF8
3FFC
ENDCHAR
STARTCHAR X
ENCODING 88
SWIDTH 646 0
DWIDTH 19 0
BBX 16 26 0 2
BITMAP
C003
E007
F00F
F00F
F00F
F00F
F00F
F00F
F00F
F00F
E00F
4006
0000
0000
4006
E00F
F00F
F00F
F00F
F00F
F00F
F00F
F00F
F00F
E007
C003
ENDCHAR
STARTCHAR Y
ENCODING 89
SWIDTH 646 0
DWIDTH 19 0
BBX 16 28 0 0
BITMAP
C003
E007
F00F
F00F
F00F
F00F
F00F
F00F
F00F
F00F
E00F
4FF6
1FF8
1FF8
0FF6
000F
000F
000F
000F
000F
000F
000F
000F
000F
0FE7
1FF3
3FF8
3FFC
ENDCHAR
STARTCHAR Z
ENCODING 90
SWIDTH 646 0
DWIDTH 19 0
BBX 16 30 0 0
BITMAP
3FFC
3FFC
1FFB
0FF7
000F
000F
000F
000F
000F
000F
000F
000F
000F
0FF6
1FF8
1FF8
4FF0
E000
F000
F000
F000
F000
F000
F000
F000
F000
EFE0
DFF0
3FF8
3FFC
ENDCHAR
STARTCHAR bracketleft
ENCODING 91
SWIDTH 646 0
DWIDTH 19 0
BBX 14 30 0 0
BITMAP
3FFC
3FFC
DFF8
EFF0
F000
F000
F000
F000
F000
F000
F000
F000
E000
4000
0000
0000
4000
E000
F000
F000
F000
F000
F000
F000
F000
F000
EFE0
DFF0
3FF8
3FFC
ENDCHAR
STARTCHAR bracketright
ENCODING 93
SWIDTH 646 0
DWIDTH 19 0
BBX 14 30 2 0
BITMAP
FFF0
FFF0
7FEC
3FDC
003C
003C
003C
003C
003C
003C
003C
003C
003C
0018
0000
0000
0018
003C
003C
003C
003C
003C
003C
003C
003C
003C
3F9C
7FCC
FFE0
FFF0
ENDCHAR
STARTCHAR underscore
ENCODING 95
SWIDTH 646 0
DWIDTH 19 0
BBX 12 4 2 0
BITMAP
3F80
7FC0
FFE0
FFF0
ENDCHAR
STARTCHAR a
ENCODING 97
SWIDTH 646 0
DWIDTH 19 0
BBX 16 30 0 0
BITMAP
3FFC
3FFC
1FFB
0FF7
000F
000F
000F
000F
000F
000F
000F
000F
000F
0FF6
1FF8
1FF8
4FF6
E00F
F00F
F00F
F00F
F00F
F00F
F00F
F00F
F00F
EFE7
DFF3
3FF8
3FFC
ENDCHAR
STARTCHAR b
ENCODING 98
SWIDTH 646 0
DWIDTH 19 0
BBX 16 28 0 0
BITMAP
C000
E000
F000
F000
F000
F000
F000
F000
F000
F000
E000
4FF0
1FF8
1FF8
4FF6
E00F
F00F
F00F
F00F
F00F
F00F
F00F
F00F
F00F
EFE7
DFF3
3FF8
3FFC
ENDCHAR
STARTCHAR c
ENCODING 99
SWIDTH 646 0
DWIDTH 19 0
BBX 14 17 0 0
BITMAP
0FF0
1FF8
1FF8
4FF0
E000
F000
F000
F000
F000
F000
F000
F000
F000
EFE0
DFF0
3FF8
3FFC
ENDCHAR
STARTCHAR d
ENCODING 100
SWIDTH 646 0
DWIDTH 19 0
BBX 16 28 0 0
BITMAP
0003
0007
000F
000F
000F
000F
000F
000F
000F
000F
000F
0FF6
1FF8
1FF8
4FF6
E00F
F00F
F00F
F00F
F00F
F00F
F00F
F00F
F00F
EFE7
DFF3
3FF8
3FFC
ENDCHAR
STARTCHAR e
ENCODING 101
SWIDTH 646 0
DWIDTH 19 0
BBX 16 30 0 0
BITMAP
3FFC
3FFC
DFFB
EFF7
F00F
F00F
F00F
F00F
F00F
F00F
F00F
F00F
E00F
4FF6
1FF8
1FF8
4FF0
E000
F000
F000
F000
F000
F000
F000
F000
F000
EFE0
DFF0
3FF8
3FFC
ENDCHAR
STARTCHAR f
ENCODING 102
SWIDTH 646 0
DWIDTH 19 0
BBX 14 28 0 2
BITMAP
3FFC
3FFC
DFF8
EFF0
F000
F000
F000
F000
F000
F000
F000
F000
E000
4FF0
1FF8
1FF8
4FF0
E000
F000
F000
F000
F000
F000
F000
F000
F000
E000
C000
ENDCHAR
STARTCHAR g
ENCODING 103
SWIDTH 646 0
DWIDTH 19 0
BBX 16 30 0 0
BITMAP
3FFC
3FFC
DFFB
EFF7
F00F
F00F
F00F
F00F
F00F
F00F
F00F
F00F
E00F
4FF6
1FF8
1FF8
0FF6
000F
000F
000F
000F
000F
000F
000F
000F
000F
0FE7
1FF3
3FF8
3FFC
ENDCHAR
STARTCHAR h
ENCODING 104
SWIDTH 646 0
DWIDTH 19 0
BBX 16 26 0 2
BITMAP
C000
E000
F000
F000
F000
F000
F000
F000
F000
F000
E000
4FF0
1FF8
1FF8
4FF6
E00F
F00F
F00F
F00F
F00F
F00F
F00F
F00F
F00F
E007
C003
ENDCHAR
STARTCHAR i
ENCODING 105
SWIDTH 646 0
DWIDTH 19 0
BBX 14 28 2 2
BITMAP
FFF0
FFF0
7FE0
3FC0
0000
0000
0000
0000
0000
0000
0000
0000
0000
3FC0
7FE0
7FE0
3FD8
003C
003C
003C
003C
003C
003C
003C
003C
003C
001C
000C
ENDCHAR
STARTCHAR j
ENCODING 106
SWIDTH 646 0
DWIDTH 19 0
BBX 14 30 2 0
BITMAP
FFF0
FFF0
7FE0
3FC0
0000
0000
0000
0000
0000
0000
0000
0000
0000
0000
0000
0000
0018
003C
003C
003C
003C
003C
003C
003C
003C
003C
3F9C
7FCC
FFE0
FFF0
ENDCHAR
STARTCHAR k
ENCODING 107
SWIDTH 646 0
DWIDTH 19 0
BBX 16 28 0 2
BITMAP
3FFC
3FFC
DFF8
EFF0
F000
F000
F000
F000
F000
F000
F000
F000
E000
4FF0
1FF8
1FF8
4FF6
E00F
F00F
F00F
F00F
F00F
F00F
F00F
F00F
F00F
E007
C003
ENDCHAR
STARTCHAR l
ENCODING 108
SWIDTH 646 0
DWIDTH 19 0
BBX 14 28 0 0
BITMAP
C000
E000
F000
F000
F000
F000
F000
F000
F000
F000
E000
4000
0000
0000
4000
E000
F000
F000
F000
F000
F000
F000
F000
F000
EFE0
DFF0
3FF8
3FFC
ENDCHAR
STARTCHAR m
ENCODING 109
SWIDTH 646 0
DWIDTH 19 0
BBX 16 28 0 2
BITMAP
3FFC
3FFC
1FF8
0FF0
0000
0000
0000
0000
0000
0000
0000
0000
0000
0FF0
1FF8
1FF8
4FF6
E00F
F00F
F00F
F00F
F00F
F00F
F00F
F00F
F00F
E007
C003
ENDCHAR
STARTCHAR n
ENCODING 110
SWIDTH 646 0
DWIDTH 19 0
BBX 16 15 0 2
BITMAP
0FF0
1FF8
1FF8
4FF6
E00F
F00F
F00F
F00F
F00F
F00F
F00F
F00F
F00F
E007
C003
ENDCHAR
STARTCHAR o
ENCODING 111
SWIDTH 646 0
DWIDTH 19 0
BBX 16 17 0 0
BITMAP
0FF0
1FF8
1FF8
4FF6
E00F
F00F
F00F
F00F
F00F
F00F
F00F
F00F
F00F
EFE7
DFF3
3FF8
3FFC
ENDCHAR
STARTCHAR p
ENCODING 112
SWIDTH 646 0
DWIDTH 19 0
BBX 16 28 0 2
BITMAP
3FFC
3FFC
DFFB
EFF7
F00F
F00F
F00F
F00F
F00F
F00F
F00F
F00F
E00F
4FF6
1FF8
1FF8
4FF0
E000
F000
F000
F000
F000
F000
F000
F000
F000
E000
C000
ENDCHAR
STARTCHAR q
ENCODING 113
SWIDTH 646 0
DWIDTH 19 0
BBX 16 28 0 2
BITMAP
3FFC
3FFC
DFFB
EFF7
F00F
F00F
F00F
F00F
F00F
F00F
F00F
F00F
E00F
4FF6
1FF8
1FF8
0FF6
000F
000F
000F
000F
000F
000F
000F
000F
000F
0007
0003
ENDCHAR
STARTCHAR r
ENCODING 114
SWIDTH 646 0
DWIDTH 19 0
BBX 13 15 0 2
BITMAP
0FF0
1FF8
1FF8
4FF0
E000
F000
F000
F000
F000
F000
F000
F000
F000
E000
C000
ENDCHAR
STARTCHAR s
ENCODING 115
SWIDTH 646 0
DWIDTH 19 0
BBX 16 30 0 0
BITMAP
3FFC
3FFC
DFF8
EFF0
F000
F000
F000
F000
F000
F000
F000
F000
E000
4FF0
1FF8
1FF8
0FF6
000F
000F
000F
000F
000F
000F
000F
000F
000F
0FE7
1FF3
3FF8
3FFC
ENDCHAR
STARTCHAR t
ENCODING 116
SWIDTH 646 0
DWIDTH 19 0
BBX 14 28 0 0
BITMAP
C000
E000
F000
F000
F000
F000
F000
F000
F000
F000
E000
4FF0
1FF8
1FF8
4FF0
E000
F000
F000
F000
F000
F000
F000
F000
F000
EFE0
DFF0
3FF8
3FFC
ENDCHAR
STARTCHAR u
ENCODING 117
SWIDTH 646 0
DWIDTH 19 0
BBX 16 14 0 0
BITMAP
4006
E00F
F00F
F00F
F00F
F00F
F00F
F00F
F00F
F00F
EFE7
DFF3
3FF8
3FFC
ENDCHAR
STARTCHAR v
ENCODING 118
SWIDTH 646 0
DWIDTH 19 0
BBX 16 26 0 2
BITMAP
C003
E007
F00F
F00F
F00F
F00F
F00F
F00F
F00F
F00F
E00F
4FF6
1FF8
1FF8
4FF0
E000
F000
F000
F000
F000
F000
F000
F000
F000
E000
C000
ENDCHAR
STARTCHAR w
ENCODING 119
SWIDTH 646 0
DWIDTH 19 0
BBX 16 28 0 0
BITMAP
C003
E007
F00F
F00F
F00F
F00F
F00F
F00F
F00F
F00F
E00F
4FF6
1FF8
1FF8
0FF0
0000
0000
0000
0000
0000
0000
0000
0000
0000
0FE0
1FF0
3FF8
3FFC
ENDCHAR
STARTCHAR x
ENCODING 120
SWIDTH 646 0
DWIDTH 19 0
BBX 16 26 0 2
BITMAP
C003
E007
F00F
F00F
F00F
F00F
F00F
F00F
F00F
F00F
E00F
4006
0000
0000
4006
E00F
F00F
F00F
F00F
F00F
F00F
F00F
F00F
F00F
E007
C003
ENDCHAR
STARTCHAR y
ENCODING 121
SWIDTH 646 0
DWIDTH 19 0
BBX 16 28 0 0
BITMAP
C003
E007
F00F
F00F
F00F
F00F
F00F
F00F
F00F
F00F
E00F
4FF6
1FF8
1FF8
0FF6
000F
000F
000F
000F
000F
000F
000F
000F
000F
0FE7
1FF3
3FF8
3FFC
ENDCHAR
STARTCHAR z
ENCODING 122
SWIDTH 646 0
DWIDTH 19 0
BBX 16 30 0 0
BITMAP
3FFC
3FFC
1FFB
0FF7
000F
000F
000F
000F
000F
000F
000F
000F
000F
0FF6
1FF8
1FF8
4FF0
E000
F000
F000
F000
F000
F000
F000
F000
F000
EFE0
DFF0
3FF8
3FFC
ENDCHAR
STARTCHAR degree
ENCODING 176
SWIDTH 300 0
DWIDTH 9 0
BBX 7 7 1 22
BITMAP
38
44
82
82
82
44
38
ENDCHAR
STARTCHAR quoteleft
ENCODING 8216
SWIDTH 646 0
DWIDTH 19 0
BBX 4 12 0 16
BITMAP
C0
E0
F0
F0
F0
F0
F0
F0
F0
F0
E0
40
ENDCHAR
STARTCHAR quoteright
ENCODING 8217
SWIDTH 646 0
DWIDTH 19 0
BBX 4 12 12 16
BITMAP
30
70
F0
F0
F0
F0
F0
F0
F0
F0
F0
60
ENDCHAR
STARTCHAR quotedblleft
ENCODING 8220
SWIDTH 646 0
DWIDTH 19 0
BBX 16 12 0 16
BITMAP
C003
E007
F00F
F00F
F00F
F00F
F00F
F00F
F00F
F00F
E00F
4006
ENDCHAR
STARTCHAR quotedblright
ENCODING 8221
SWIDTH 646 0
DWIDTH 19 0
BBX 16 12 0 16
BITMAP
C003
E007
F00F
F00F
F00F
F00F
F00F
F00F
F00F
F00F
E00F
4006
ENDCHAR
STARTCHAR .notdef
ENCODING 8223
SWIDTH 827 0
DWIDTH 25 0
BBX 23 30 0 0
BITMAP
FFFFFE
C00006
800002
800002
900012
880022
800002
800002
820082
810102
800002
800002
804402
802802
800002
800002
802802
804402
800002
800002
810102
820082
800002
800002
880022
900012
800002
800002
C00006
FFFFFE
ENDCHAR
ENDFONT
